<?xml version="1.0" encoding="iso-8859-1"?>
<!-- Generator: Adobe Illustrator 19.0.0, SVG Export Plug-In . SVG Version: 6.00 Build 0)  -->
<svg version="1.1" id="Layer_1" xmlns="http://www.w3.org/2000/svg" xmlns:xlink="http://www.w3.org/1999/xlink" x="0px" y="0px"
	 viewBox="0 0 512 512" style="enable-background:new 0 0 512 512;" xml:space="preserve">
<g>
	<g>
		<rect x="111.296" y="262.421" width="137.918" height="31.345"/>
	</g>
</g>
<g>
	<g>
		<rect x="110.314" y="135.578" width="137.918" height="31.345"/>
	</g>
</g>
<g>
	<g>
		<rect x="110.314" y="199.313" width="250.761" height="31.345"/>
	</g>
</g>
<g>
	<g>
		<polygon points="374.189,377.268 374.189,337.125 342.844,337.125 342.844,377.268 304.703,377.268 304.703,408.613 
			342.844,408.613 342.844,448.757 374.189,448.757 374.189,408.613 412.328,408.613 412.328,377.268 		"/>
	</g>
</g>
<g>
	<g>
		<path d="M434.385,304.812V106.726L328.227,0H36.68v511.97h318.296c0.802,0.016,1.605,0.03,2.411,0.03
			c65.027,0,117.932-52.904,117.932-117.932C475.32,358.44,459.439,326.454,434.385,304.812z M329.206,45.431l51.812,52.09h-51.812
			V45.431z M68.026,480.625V31.345h229.836v97.521H403.04v156.467c-14.049-5.92-29.474-9.197-45.651-9.197
			c-65.027,0-117.932,52.904-117.932,117.932c0,34.177,14.618,64.998,37.923,86.556H68.026z M358.595,480.625h-2.414
			c-47.188-0.651-85.38-39.217-85.38-86.556c0-47.744,38.843-86.587,86.587-86.587c47.744,0,86.587,38.843,86.587,86.587
			C443.975,441.408,405.782,479.974,358.595,480.625z"/>
	</g>
</g>
<g>
</g>
<g>
</g>
<g>
</g>
<g>
</g>
<g>
</g>
<g>
</g>
<g>
</g>
<g>
</g>
<g>
</g>
<g>
</g>
<g>
</g>
<g>
</g>
<g>
</g>
<g>
</g>
<g>
</g>
</svg>
