<?xml version="1.0" encoding="iso-8859-1"?>
<!-- Generator: Adobe Illustrator 19.0.0, SVG Export Plug-In . SVG Version: 6.00 Build 0)  -->
<svg version="1.1" id="Layer_1" xmlns="http://www.w3.org/2000/svg" xmlns:xlink="http://www.w3.org/1999/xlink" x="0px" y="0px"
	 viewBox="0 0 512 512" style="enable-background:new 0 0 512 512;" xml:space="preserve">
<g>
	<g>
		<path d="M491.933,431.983V382.95h-25.545V202.895h28.271v-82.982L256,0.559L17.341,119.913v82.982h28.271V382.95H20.067v49.033H0
			v79.459h512v-79.459H491.933z M47.766,138.714L256,34.577l208.234,104.138v33.755H47.766V138.714z M461.508,413.376v18.608
			h-79.992v-18.608H461.508z M407.06,382.951V202.896h28.904v180.054H407.06z M179.494,227.805v204.177h-18.585V382.95h-25.545
			V202.895h241.27v180.055H351.09v49.033h-18.585V227.805H179.494z M302.081,258.23v173.752h-30.869V258.23H302.081z
			 M240.788,258.23v173.752h-30.869V258.23H240.788z M130.484,413.376v18.608H50.492v-18.608H130.484z M76.037,382.951V202.896
			h28.904v180.054H76.037z M481.575,481.016H30.425v-18.609h130.484h18.585h153.012h18.585h130.485V481.016z"/>
	</g>
</g>
<g>
	<g>
		<path d="M256,63.701c-25.723,0-46.651,20.928-46.651,46.651c0,25.723,20.928,46.651,46.651,46.651s46.651-20.928,46.651-46.651
			S281.723,63.701,256,63.701z M256,126.579c-8.947,0-16.227-7.28-16.227-16.227s7.28-16.227,16.227-16.227
			s16.227,7.28,16.227,16.227S264.947,126.579,256,126.579z"/>
	</g>
</g>
<g>
</g>
<g>
</g>
<g>
</g>
<g>
</g>
<g>
</g>
<g>
</g>
<g>
</g>
<g>
</g>
<g>
</g>
<g>
</g>
<g>
</g>
<g>
</g>
<g>
</g>
<g>
</g>
<g>
</g>
</svg>
