<svg id="Layer_1" enable-background="new 0 0 512 512" height="512" viewBox="0 0 512 512" width="512" xmlns="http://www.w3.org/2000/svg"><g><path d="m333.116 42.032c0-4.142-3.358-7.5-7.5-7.5h-298.116c-15.164 0-27.5 12.336-27.5 27.5v442.582c0 9.697 15 9.697 15 0v-442.582c0-6.893 5.607-12.5 12.5-12.5h298.116c4.142 0 7.5-3.358 7.5-7.5z"/><path d="m484.5 34.532h-17.155v-2.208c0-17.761-14.449-32.21-32.21-32.21h-45.901c-17.761 0-32.21 14.449-32.21 32.21v202.755c0 24.949 20.297 45.246 45.247 45.246 24.949 0 45.246-20.297 45.246-45.246v-139.24c0-33.268-51.708-33.497-51.708 0v86.941c0 9.697 15 9.697 15 0v-86.941c0-13.579 21.708-14.2 21.708 0v139.24c0 16.678-13.568 30.246-30.247 30.246-16.678 0-30.246-13.568-30.246-30.246v-185.547h112.476c6.893 0 12.5 5.607 12.5 12.5v442.582c0 9.697 15 9.697 15 0v-442.582c0-15.164-12.336-27.5-27.5-27.5zm-112.476-2.208c0-9.49 7.721-17.21 17.21-17.21h45.901c9.49 0 17.21 7.72 17.21 17.21v2.208h-80.321z"/><path d="m285.114 207.753h-201.817c-9.697 0-9.697 15 0 15h201.817c9.697 0 9.697-15 0-15z"/><path d="m285.114 283.025h-201.817c-9.697 0-9.697 15 0 15h201.817c9.697 0 9.697-15 0-15z"/><path d="m428.703 358.297h-345.406c-9.697 0-9.697 15 0 15h345.405c9.698 0 9.698-15 .001-15z"/><path d="m428.703 433.569c-.001 0-.003 0-.004 0-83.755.045-168.643.045-252.304 0-9.429 0-9.437 14.994-.008 15 41.833.022 83.973.034 126.125.034s84.315-.011 126.195-.034c9.695-.006 9.69-15-.004-15z"/><path d="m128.321 433.569c-.007 0-.015 0-.022 0-15.23.045-30.363.045-44.979 0-9.431 0-9.474 14.971-.046 15 7.324.022 37.44.022 45.068 0 9.686-.029 9.661-15-.021-15z"/></g></svg>