<?xml version="1.0" encoding="iso-8859-1"?>
<!-- Generator: Adobe Illustrator 19.0.0, SVG Export Plug-In . SVG Version: 6.00 Build 0)  -->
<svg version="1.1" id="Layer_1" xmlns="http://www.w3.org/2000/svg" xmlns:xlink="http://www.w3.org/1999/xlink" x="0px" y="0px"
	 viewBox="0 0 512.001 512.001" style="enable-background:new 0 0 512.001 512.001;" xml:space="preserve">
<g>
	<g>
		<path d="M268.025,48.974c-25.872,0-46.92,21.049-46.92,46.92s21.048,46.92,46.92,46.92s46.92-21.049,46.92-46.92
			S293.897,48.974,268.025,48.974z M268.025,112.395c-9.099,0-16.502-7.404-16.502-16.502s7.403-16.502,16.502-16.502
			c9.1,0,16.502,7.404,16.502,16.502S277.124,112.395,268.025,112.395z"/>
	</g>
</g>
<g>
	<g>
		<rect x="205.691" y="204.779" width="125.299" height="30.417"/>
	</g>
</g>
<g>
	<g>
		<path d="M393.807,233.723c-11.083,0-20.099,9.017-20.099,20.099c0,11.082,9.017,20.099,20.099,20.099
			c11.082,0,20.099-9.017,20.099-20.099C413.905,242.74,404.89,233.723,393.807,233.723z"/>
	</g>
</g>
<g>
	<g>
		<path d="M467.488,238.327c-12.288-27.468-32.266-51.015-57.424-67.655v-66.443h-15.209c-11.488,0-22.496,2.774-32.294,7.744
			c0.887-5.23,1.356-10.6,1.356-16.08c0-52.874-43.017-95.891-95.892-95.891s-95.892,43.017-95.892,95.891
			c0,18.692,5.381,36.149,14.668,50.911c-68.766,11.905-122.479,68.282-130.348,138.33c-15.198-5.753-26.036-20.453-26.036-37.641
			v-32.83H0v32.83c0,33.951,24.073,62.378,56.045,69.127c2.738,31.378,14.823,61.512,34.72,86.05
			c19.836,24.464,46.68,42.539,76.534,51.748v57.581h87.653v-50.594h26.788v50.594h87.653v-57.598
			c21.333-6.571,41.214-17.676,58.066-32.509c17.092-15.045,30.796-33.675,40.048-54.339h44.492V238.327H467.488z M268.025,30.419
			c36.103,0,65.475,29.372,65.475,65.474c0,21.364-10.288,40.368-26.166,52.326c-0.125,0.094-0.25,0.187-0.375,0.279
			c-0.724,0.537-1.459,1.062-2.206,1.57c-0.084,0.058-0.168,0.116-0.253,0.172c-7.796,5.249-16.775,8.867-26.448,10.36
			c-0.07,0.011-0.141,0.02-0.211,0.03c-0.92,0.139-1.847,0.255-2.779,0.354c-0.229,0.024-0.459,0.049-0.688,0.071
			c-0.804,0.078-1.614,0.137-2.426,0.186c-0.265,0.015-0.528,0.036-0.793,0.049c-1.037,0.049-2.078,0.079-3.127,0.079
			s-2.091-0.03-3.127-0.079c-0.265-0.012-0.528-0.034-0.793-0.049c-0.812-0.049-1.622-0.107-2.426-0.186
			c-0.23-0.022-0.459-0.047-0.688-0.071c-0.932-0.1-1.859-0.215-2.779-0.354c-0.07-0.01-0.141-0.019-0.211-0.03
			c-9.673-1.492-18.653-5.111-26.448-10.36c-0.085-0.057-0.169-0.116-0.253-0.172c-0.747-0.508-1.481-1.032-2.206-1.57
			c-0.125-0.093-0.25-0.186-0.375-0.279c-15.879-11.958-26.166-30.962-26.166-52.326C202.55,59.791,231.922,30.419,268.025,30.419z
			 M446.673,337.137l-3.66,9.964c-7.312,19.901-19.639,37.868-35.65,51.96c-16.118,14.188-35.656,24.151-56.498,28.815
			l-11.888,2.659v51.047h-26.819v-50.594h-87.623v50.594h-26.819v-51.03l-11.889-2.659c-27.926-6.246-53.296-22.007-71.437-44.38
			c-18.395-22.686-28.526-51.301-28.526-80.572c0-70.531,57.32-127.929,127.825-128.047c12.521,8.652,26.665,14.081,41.619,16.048
			c0.262,0.034,0.523,0.071,0.786,0.103c0.598,0.074,1.197,0.144,1.799,0.206c0.651,0.069,1.305,0.128,1.96,0.184
			c0.507,0.043,1.014,0.083,1.522,0.118c0.821,0.057,1.645,0.102,2.471,0.138c0.323,0.013,0.647,0.026,0.97,0.036
			c1.066,0.035,2.135,0.06,3.209,0.06c1.074,0,2.143-0.024,3.209-0.06c0.323-0.01,0.647-0.023,0.97-0.036
			c0.828-0.036,1.655-0.082,2.478-0.139c0.501-0.034,1.001-0.074,1.5-0.116c0.662-0.056,1.323-0.116,1.981-0.186
			c0.596-0.062,1.191-0.132,1.784-0.205c0.271-0.033,0.541-0.071,0.811-0.106c14.948-1.969,29.085-7.398,41.602-16.045h0.42
			c5.264,0,10.596,0.328,15.847,0.975l13.017,1.603l3.5-12.638c3.504-12.653,12.785-22.586,24.502-27.263v50.283l7.544,4.401
			c25.732,15.012,45.549,38.638,55.8,66.528l3.661,9.962h34.929v68.393H446.673z"/>
	</g>
</g>
<g>
</g>
<g>
</g>
<g>
</g>
<g>
</g>
<g>
</g>
<g>
</g>
<g>
</g>
<g>
</g>
<g>
</g>
<g>
</g>
<g>
</g>
<g>
</g>
<g>
</g>
<g>
</g>
<g>
</g>
</svg>
